<svg width="114" height="84" viewBox="0 0 114 84" fill="none" xmlns="http://www.w3.org/2000/svg">
<path d="M89.0756 83.4747H70.6502H65.6886H64.6171V58.7599H72.7C74.7499 58.7599 75.9612 56.4305 74.7499 54.7534L59.0266 32.9969C58.0249 31.5993 55.9518 31.5993 54.9501 32.9969L39.2268 54.7534C38.0155 56.4305 39.2035 58.7599 41.2767 58.7599H49.3596V83.4747H48.2881H43.3265H21.9661C9.73682 82.7992 0 71.3619 0 58.9696C0 50.4207 4.63547 42.9667 11.5072 38.9369C10.8782 37.2364 10.5521 35.4195 10.5521 33.5094C10.5521 24.7742 17.6101 17.7162 26.3453 17.7162C28.2321 17.7162 30.049 18.0423 31.7495 18.6712C36.8042 7.95608 47.7058 0.525345 60.3776 0.525345C76.7765 0.548639 90.2869 13.104 91.8243 29.1069C104.426 31.2732 114 42.9434 114 56.151C114 70.2671 103.005 82.4963 89.0756 83.4747Z" fill="black" fill-opacity="0.09"/>
</svg>
